<svg xmlns="http://www.w3.org/2000/svg" width="104" height="23" viewBox="0 0 104 23">
  <path fill="#E3173E" d="M12.85 18.318c-1.057 1.078-2.518 1.744-4.13 1.744-1.613 0-3.074-.666-4.13-1.744-1.057-1.08-1.71-2.57-1.71-4.213V4.64l9.372 4.915c1.316.824 2.31 2.904 2.31 4.55-.002 1.644-.657 3.134-1.712 4.213M14.286 7.48L0 0v14.105c0 2.457.976 4.68 2.555 6.29C4.13 22 6.312 23 8.72 23c2.405 0 4.587-.998 6.165-2.605 1.578-1.61 2.553-3.833 2.553-6.29S16.202 8.61 14.286 7.48z"/>
  <path fill="#008CD1" d="M11.02 14.105c0-1.647.99-3.727 2.308-4.55L22.7 4.64v9.464c0 1.643-.653 3.133-1.71 4.213-1.058 1.078-2.518 1.744-4.13 1.744s-3.075-.66-4.13-1.74c-1.058-1.08-1.71-2.57-1.71-4.21m-2.88 0c0 2.458.978 4.68 2.555 6.29C12.272 22 14.452 23 16.86 23s4.587-.998 6.164-2.605c1.578-1.61 2.554-3.833 2.554-6.29V0L11.292 7.48c-1.915 1.13-3.15 4.168-3.15 6.625z"/>
  <path d="M45.406 20.09l.005-9.013h-.03l-3.31 5.16H40.2l-3.403-5.097h-.032l-.006 8.95h-4.15V4.612h3.56l4.9 7.07h.03l4.682-7.07h3.777V20.09h-4.157m14.93-12.453c2.31 0 3.683 1.814 3.683 4.746 0 2.93-1.345 4.712-3.687 4.712-2.31 0-3.715-1.783-3.715-4.712 0-2.932 1.372-4.746 3.714-4.746m8.054 4.746c0-2.517-.844-4.586-2.374-6.02-1.37-1.274-3.31-2.007-5.62-2.007-2.245 0-4.12.7-5.492 1.88-1.655 1.432-2.59 3.598-2.59 6.146 0 2.674.967 4.84 2.654 6.243 1.376 1.145 3.186 1.783 5.37 1.783 2.25 0 4.12-.668 5.496-1.88 1.653-1.4 2.56-3.567 2.56-6.145zM80.47 7.797l1.03-3.185H71.136V20.09H81.22v-3.185h-5.963v-3.152h5.215v-3.027h-5.215v-2.93h5.216M96.115 20.09h3.84V4.612h-4.147l-.006 9.234h-.03l-6.9-9.234h-4.06V20.09h4.117v-9.522h.03l7.15 9.522m6.43-12.53c.803 0 1.46-.666 1.46-1.488s-.657-1.483-1.46-1.483-1.457.66-1.457 1.48.648 1.483 1.454 1.483m1.22-1.49c0 .686-.548 1.242-1.22 1.242-.67 0-1.21-.557-1.21-1.24s.54-1.24 1.21-1.24c.672 0 1.217.553 1.217 1.238zm-1.856.824h.254V6.21h.15c.192 0 .268.068.465.427l.14.25h.306l-.19-.31c-.13-.214-.23-.35-.365-.4V6.17c.265-.016.446-.2.446-.46 0-.172-.13-.418-.514-.418h-.692V6.89zm.254-.9v-.48h.406c.167 0 .28.094.28.24 0 .164-.13.24-.323.24h-.365z"/>
</svg>
